<svg xmlns="http://www.w3.org/2000/svg" xmlns:xlink="http://www.w3.org/1999/xlink" width="102.73249mm" height="38.80557mm" viewBox="0 0 291.21021 110.00003">
  <defs>
    <style>
      .bbec50ae-c2dc-45b7-84c4-363e3fa7d345 {
        fill: none;
      }

      .a192a3aa-5229-410b-9025-7a81dd277a25, .ba58e80b-8394-48d9-95d2-fdddad7a1a79 {
        fill: #522e91;
      }

      .a192a3aa-5229-410b-9025-7a81dd277a25 {
        stroke: #522e91;
        stroke-miterlimit: 10;
      }

      .a1f33a68-1398-47db-b350-271fba8d7851 {
        fill: #231f20;
      }

      .a4d5baed-f904-446a-ae1a-6469834c368e {
        clip-path: url(#e8ff4fde-807d-468d-9b77-c242711c6dd9);
      }

      .e0c9afce-2564-4257-b767-f2ab7eb914c0 {
        fill: #dc60a4;
      }
    </style>
    <clipPath id="e8ff4fde-807d-468d-9b77-c242711c6dd9" transform="translate(-0.0368 0.00006)">
      <circle class="bbec50ae-c2dc-45b7-84c4-363e3fa7d345" cx="55" cy="55" r="55"/>
    </clipPath>
  </defs>
  <g id="baddeb71-6a87-4934-9681-041f39e095e4" data-name="Layer 2">
    <g id="b10f4c25-7912-4667-ae82-7069db997897" data-name="Layer 9">
      <g>
        <path class="a192a3aa-5229-410b-9025-7a81dd277a25" d="M120,54.3999V26.56005h1.48v7.87989A19.56565,19.56565,0,0,1,129.27977,36.02,20.00406,20.00406,0,0,1,139.96,46.87988V26.56005h1.48V54.3999h-1.48a18.089,18.089,0,0,0-2.48-9.25977,18.36417,18.36417,0,0,0-6.74023-6.74023,18.08428,18.08428,0,0,0-9.25977-2.48v18.48Z" transform="translate(-0.0368 0.00006)"/>
        <path class="a192a3aa-5229-410b-9025-7a81dd277a25" d="M166.07958,27.5a11.43593,11.43593,0,0,1,4.18018,4.17969,11.23813,11.23813,0,0,1,1.53955,5.76026V43.52a11.235,11.235,0,0,1-1.53955,5.75976A11.42979,11.42979,0,0,1,166.07958,53.46a11.54173,11.54173,0,0,1-11.52,0,11.41873,11.41873,0,0,1-4.18018-4.18018,11.226,11.226,0,0,1-1.54-5.75976V37.43994a11.22912,11.22912,0,0,1,1.54-5.76026A11.42486,11.42486,0,0,1,154.55956,27.5a11.54173,11.54173,0,0,1,11.52,0ZM151.65966,48.54a9.9177,9.9177,0,0,0,3.63964,3.63965,10.07108,10.07108,0,0,0,10.04005,0A9.92635,9.92635,0,0,0,168.97948,48.54a9.79778,9.79778,0,0,0,1.33985-5.02V37.43994a9.8003,9.8003,0,0,0-1.33985-5.02,9.93853,9.93853,0,0,0-3.64013-3.64014,10.07421,10.07421,0,0,0-10.04005,0,9.92987,9.92987,0,0,0-3.63964,3.64014,9.79118,9.79118,0,0,0-1.34034,5.02V43.52A9.78866,9.78866,0,0,0,151.65966,48.54Z" transform="translate(-0.0368 0.00006)"/>
        <path class="a192a3aa-5229-410b-9025-7a81dd277a25" d="M181.31933,54.3999V26.56005h1.48V52.91992h19.39991v1.48Z" transform="translate(-0.0368 0.00006)"/>
        <path class="a192a3aa-5229-410b-9025-7a81dd277a25" d="M225.27833,27.5a11.42984,11.42984,0,0,1,4.18066,4.17969,11.23379,11.23379,0,0,1,1.54,5.76026V43.52a11.23069,11.23069,0,0,1-1.54,5.75976A11.42371,11.42371,0,0,1,225.27833,53.46a11.54083,11.54083,0,0,1-11.51954,0,11.42118,11.42118,0,0,1-4.17969-4.18018,11.22125,11.22125,0,0,1-1.54-5.75976V37.43994a11.22435,11.22435,0,0,1,1.54-5.76026A11.42731,11.42731,0,0,1,213.75879,27.5a11.54083,11.54083,0,0,1,11.51954,0ZM210.8584,48.54a9.92035,9.92035,0,0,0,3.64063,3.63965,10.07106,10.07106,0,0,0,10.04,0A9.92513,9.92513,0,0,0,228.17872,48.54a9.79309,9.79309,0,0,0,1.33984-5.02V37.43994a9.79561,9.79561,0,0,0-1.33984-5.02,9.93732,9.93732,0,0,0-3.63965-3.64014,10.07419,10.07419,0,0,0-10.04,0,9.93252,9.93252,0,0,0-3.64063,3.64014,9.79551,9.79551,0,0,0-1.33984,5.02V43.52A9.793,9.793,0,0,0,210.8584,48.54Z" transform="translate(-0.0368 0.00006)"/>
        <path class="a192a3aa-5229-410b-9025-7a81dd277a25" d="M258.918,48.67969a9.34923,9.34923,0,0,1-3.91992,4.54A11.25057,11.25057,0,0,1,248.918,55a11.11716,11.11716,0,0,1-5.75977-1.56006,11.35936,11.35936,0,0,1-4.17969-4.2998,12.07011,12.07011,0,0,1-1.54-6.02V37.52a11.49537,11.49537,0,0,1,5.7002-10.02,11.19672,11.19672,0,0,1,5.7793-1.54,12.76586,12.76586,0,0,1,4.76074.85987,9.98478,9.98478,0,0,1,3.67969,2.5,11.9582,11.9582,0,0,1,2.01953,3.04,7.99808,7.99808,0,0,1,.78028,3.3999h-1.43946a7.08736,7.08736,0,0,0-.74023-2.91992,10.60691,10.60691,0,0,0-1.78028-2.6001,9.60531,9.60531,0,0,0-7.28027-2.79981,9.90947,9.90947,0,0,0-8.67969,4.98A10.06645,10.06645,0,0,0,238.918,37.52v5.60009a10.60088,10.60088,0,0,0,1.34082,5.29981,9.88857,9.88857,0,0,0,3.63965,3.73975A9.67815,9.67815,0,0,0,248.918,53.52a9.92535,9.92535,0,0,0,10-10V42.12011h-10v-1.48h11.48047V54.3999H258.918Z" transform="translate(-0.0368 0.00006)"/>
        <path class="a192a3aa-5229-410b-9025-7a81dd277a25" d="M268.87794,26.56005l9.87989,14.87989,9.79981-14.87989h1.76074L279.47756,43V54.3999h-1.4795V43L267.11818,26.56005Z" transform="translate(-0.0368 0.00006)"/>
      </g>
      <g>
        <path class="a1f33a68-1398-47db-b350-271fba8d7851" d="M186.30978,82.19494a1.75552,1.75552,0,0,1,0-3.51074,1.65385,1.65385,0,0,1,1.2295.52539,1.75559,1.75559,0,0,1,.01562,2.46A1.64242,1.64242,0,0,1,186.30978,82.19494Z" transform="translate(-0.0368 0.00006)"/>
        <path class="a1f33a68-1398-47db-b350-271fba8d7851" d="M199.68869,81.86487a8.56231,8.56231,0,0,1-4.30469-1.06543,7.66176,7.66176,0,0,1-2.94043-2.95508,8.64714,8.64714,0,0,1-1.06445-4.32031,9.04121,9.04121,0,0,1,1.00488-4.335,7.50917,7.50917,0,0,1,6.85547-4.03418,7.47985,7.47985,0,0,1,3.97461,1.03418,6.99993,6.99993,0,0,1,2.625,2.86524,9.07769,9.07769,0,0,1,.93018,4.16992,1.0047,1.0047,0,0,1-.3003.76563,1.08828,1.08828,0,0,1-.78027.28418h-12.75V72.35412h12.99023l-1.29.93067a6.87478,6.87478,0,0,0-.62989-3.12012,5.14526,5.14526,0,0,0-1.875-2.16016,5.24641,5.24641,0,0,0-2.89453-.78027,5.51913,5.51913,0,0,0-3,.81055,5.40916,5.40916,0,0,0-1.99512,2.23437,7.23736,7.23736,0,0,0-.70507,3.25489,6.47734,6.47734,0,0,0,.79492,3.24023A5.854,5.854,0,0,0,196.509,78.984a6.165,6.165,0,0,0,3.17969.81054,6.68391,6.68391,0,0,0,2.17578-.375,5.26974,5.26974,0,0,0,1.75488-.94531,1.22969,1.22969,0,0,1,.75-.28516,1.05488,1.05488,0,0,1,.71973.22559,1.11653,1.11653,0,0,1,.40527.78027.86515.86515,0,0,1-.3457.71973,8.14061,8.14061,0,0,1-2.51953,1.39453A8.61139,8.61139,0,0,1,199.68869,81.86487Z" transform="translate(-0.0368 0.00006)"/>
        <path class="a1f33a68-1398-47db-b350-271fba8d7851" d="M215.67941,81.71447a1.15289,1.15289,0,0,1-1.0791-.78027l-6.66015-14.12988a.96276.96276,0,0,1-.03028-.78027,1.10436,1.10436,0,0,1,.59961-.59961.96817.96817,0,0,1,.81055-.05957,1.1257,1.1257,0,0,1,.59961.54L216.31027,79.734H215.0798l6.29981-13.82911a.94549.94549,0,0,1,.61523-.55566,1.20355,1.20355,0,0,1,.85547.04492,1.11135,1.11135,0,0,1,.56934.61524.9251.9251,0,0,1-.03028.76465L216.82,80.9342A1.19217,1.19217,0,0,1,215.67941,81.71447Z" transform="translate(-0.0368 0.00006)"/>
        <path class="a1f33a68-1398-47db-b350-271fba8d7851" d="M233.49973,81.86487a8.56231,8.56231,0,0,1-4.30469-1.06543,7.66176,7.66176,0,0,1-2.94043-2.95508,8.64714,8.64714,0,0,1-1.06445-4.32031,9.04121,9.04121,0,0,1,1.00488-4.335,7.50917,7.50917,0,0,1,6.85547-4.03418,7.47987,7.47987,0,0,1,3.97461,1.03418,6.99993,6.99993,0,0,1,2.625,2.86524,9.07765,9.07765,0,0,1,.92968,4.16992,1.00618,1.00618,0,0,1-.2998.76563,1.0883,1.0883,0,0,1-.78027.28418h-12.75V72.35412H239.74l-1.29.93067a6.87491,6.87491,0,0,0-.62988-3.12012,5.14526,5.14526,0,0,0-1.875-2.16016,5.24641,5.24641,0,0,0-2.89453-.78027,5.51908,5.51908,0,0,0-3,.81055,5.40916,5.40916,0,0,0-1.99512,2.23437,7.23736,7.23736,0,0,0-.70508,3.25489,6.47744,6.47744,0,0,0,.79492,3.24023A5.85409,5.85409,0,0,0,230.32,78.984a6.165,6.165,0,0,0,3.17969.81054,6.68391,6.68391,0,0,0,2.17578-.375,5.26974,5.26974,0,0,0,1.75488-.94531,1.22969,1.22969,0,0,1,.75-.28516,1.0549,1.0549,0,0,1,.71973.22559,1.11656,1.11656,0,0,1,.40527.78027.86518.86518,0,0,1-.3457.71973,8.14061,8.14061,0,0,1-2.51953,1.39453A8.61139,8.61139,0,0,1,233.49973,81.86487Z" transform="translate(-0.0368 0.00006)"/>
        <path class="a1f33a68-1398-47db-b350-271fba8d7851" d="M245.65012,81.71447a1.15621,1.15621,0,0,1-.85547-.31542,1.11382,1.11382,0,0,1-.31446-.82422V66.47424a1.087,1.087,0,0,1,1.16993-1.16992,1.11673,1.11673,0,0,1,.82519.31543,1.15486,1.15486,0,0,1,.31445.85449V80.57483a1.081,1.081,0,0,1-1.13964,1.13964Zm12.89941,0a1.13465,1.13465,0,0,1-.83984-.33007,1.102,1.102,0,0,1-.33008-.80957V72.77405a5.97619,5.97619,0,0,0-.70508-3.05958,4.49951,4.49951,0,0,0-1.91992-1.7998,6.51836,6.51836,0,0,0-5.39942-.03027,4.72791,4.72791,0,0,0-1.875,1.56054,3.83021,3.83021,0,0,0-.69043,2.25h-1.64941a6.45254,6.45254,0,0,1,1.01953-3.375,6.84222,6.84222,0,0,1,2.54981-2.34082,7.36341,7.36341,0,0,1,3.54-.85449,8.05419,8.05419,0,0,1,3.81054.88477,6.49991,6.49991,0,0,1,2.6543,2.59472,8.29662,8.29662,0,0,1,.97559,4.16993v7.80078a1.1272,1.1272,0,0,1-1.14063,1.13964Z" transform="translate(-0.0368 0.00006)"/>
        <path class="a1f33a68-1398-47db-b350-271fba8d7851" d="M263.74,67.91467a1.04194,1.04194,0,0,1-.75-.28516.93237.93237,0,0,1-.30078-.70507.97012.97012,0,0,1,.30078-.73536,1.04532,1.04532,0,0,1,.75-.28418h7.64941a1.04852,1.04852,0,0,1,.75.28418.96937.96937,0,0,1,.29981.73536.93151.93151,0,0,1-.29981.70507,1.04513,1.04513,0,0,1-.75.28516Zm7.46973,13.7998a5.32558,5.32558,0,0,1-4.79981-2.80468,6.07293,6.07293,0,0,1-.7207-2.98535V61.25451a1.16719,1.16719,0,0,1,.31543-.83984,1.08857,1.08857,0,0,1,.82519-.33008,1.12952,1.12952,0,0,1,1.16993,1.16992V75.92444a3.54713,3.54713,0,0,0,.89941,2.50488,3.00327,3.00327,0,0,0,2.31055.97558h.80957a1.00577,1.00577,0,0,1,.78027.32911,1.20332,1.20332,0,0,1,.2998.84082,1.04413,1.04413,0,0,1-.35937.82422,1.31867,1.31867,0,0,1-.90039.31542Z" transform="translate(-0.0368 0.00006)"/>
        <path class="a1f33a68-1398-47db-b350-271fba8d7851" d="M282.57883,81.86487a10.694,10.694,0,0,1-3.50977-.60059,6.60107,6.60107,0,0,1-2.82031-1.79981.96412.96412,0,0,1-.26953-.80957,1.20984,1.20984,0,0,1,.45019-.78027,1.19533,1.19533,0,0,1,1.62012.14942,4.58873,4.58873,0,0,0,1.9043,1.29,7.32432,7.32432,0,0,0,2.625.4502,5.29739,5.29739,0,0,0,3.21-.76465,2.3601,2.3601,0,0,0,1.02051-1.84473,2.10292,2.10292,0,0,0-1.02051-1.78515,8.68308,8.68308,0,0,0-3.35938-1.0957,9.03741,9.03741,0,0,1-4.44043-1.67969,3.63219,3.63219,0,0,1-1.41015-2.84961,3.9701,3.9701,0,0,1,.81054-2.54981,4.898,4.898,0,0,1,2.16016-1.53027,8.34117,8.34117,0,0,1,2.96973-.50977,8.02419,8.02419,0,0,1,3.46484.68946,6.34115,6.34115,0,0,1,2.35547,1.86035,1.0532,1.0532,0,0,1,.23926.80957.97525.97525,0,0,1-.4795.69043,1.21187,1.21187,0,0,1-.82519.13476,1.34319,1.34319,0,0,1-.79492-.43457,4.55894,4.55894,0,0,0-1.74024-1.27539,5.9758,5.9758,0,0,0-2.28027-.40527,4.61736,4.61736,0,0,0-2.63965.67481,1.99784,1.99784,0,0,0-.99023,1.69531,1.97074,1.97074,0,0,0,.375,1.20019,3.04328,3.04328,0,0,0,1.29.90039,11.56254,11.56254,0,0,0,2.56543.65918,11.39843,11.39843,0,0,1,3.55468,1.06543,4.61371,4.61371,0,0,1,1.86035,1.65039,3.9829,3.9829,0,0,1,.55469,2.05469,3.92442,3.92442,0,0,1-.82519,2.47461,5.41267,5.41267,0,0,1-2.2793,1.665A8.7129,8.7129,0,0,1,282.57883,81.86487Z" transform="translate(-0.0368 0.00006)"/>
      </g>
      <g class="a4d5baed-f904-446a-ae1a-6469834c368e">
        <g>
          <path class="ba58e80b-8394-48d9-95d2-fdddad7a1a79" d="M12.86267,51.47432H28.182a2.48922,2.48922,0,0,0,2.48922-2.48922V39.51172h.0169c-.002-.06612-.0169-.12872-.0169-.19532a6.472,6.472,0,0,1,12.944,0c0,.0666-.01489.1292-.0169.19532h.0169v29.885a1.49353,1.49353,0,1,0,2.98706,0V14.77453a6.472,6.472,0,1,1,12.944,0v80.451a1.49353,1.49353,0,0,0,2.98706,0V29.543a6.472,6.472,0,1,1,12.944,0v34.94a1.49353,1.49353,0,1,0,2.98706,0V44.2024a6.472,6.472,0,0,1,12.944,0v5.84834a1.49352,1.49352,0,0,0,1.49353,1.49353h16.9791A54.98838,54.98838,0,0,0,.12449,51.47432ZM81.92624,20.3317l.27615-1.56591.27609,1.56591,1.56591.27615-1.56591.27609-.27609,1.56591-.27615-1.56591-1.56591-.27609ZM69.9448,12.522l.48508-2.751s.36147,2.04984.48508,2.75091l2.75091.48508s-2.0499.36141-2.751.48509l-.485,2.7509s-.36147-2.04984-.48508-2.7509c-.70113-.12368-2.75091-.48509-2.75091-.48509Zm-44.555,11.81384.48508-2.751.485,2.751,2.751.485s-2.0499.36147-2.751.48508c-.12361.70113-.485,2.75091-.485,2.75091s-.36147-2.04978-.48508-2.75091c-.70113-.12361-2.75091-.48508-2.75091-.48508Z" transform="translate(-0.0368 0.00006)"/>
          <path class="ba58e80b-8394-48d9-95d2-fdddad7a1a79" d="M95.82438,56.52272H92.90179a6.472,6.472,0,0,1-6.472-6.472V44.2024a1.49354,1.49354,0,0,0-2.98707,0V64.483a6.472,6.472,0,0,1-12.944,0V29.543a1.49353,1.49353,0,1,0-2.98706,0V95.44185h-.01094a6.46441,6.46441,0,0,1-12.92208,0h-.01094V14.77453a1.49353,1.49353,0,1,0-2.98706,0V69.39672a6.472,6.472,0,0,1-12.944,0V39.3164a1.49353,1.49353,0,1,0-2.98706,0V51.47432a4.97847,4.97847,0,0,1-4.97845,4.97845H.0368a54.982,54.982,0,0,0,109.92473.06995ZM19.89922,76.45278l-.43282,2.45464-.43282-2.45464L16.57888,76.02l2.4547-.43282.43282-2.4547.43282,2.4547,2.4547.43282Zm8.89982,4.6905-.26867,1.52362s-.20019-1.13528-.26862-1.52362c-.38833-.06842-1.52361-.26861-1.52361-.26861l1.52361-.26867.26862-1.52362s.20018,1.13535.26867,1.52362l1.52355.26867S29.18731,81.07486,28.799,81.14328Zm6.18671,10.21657-.41039,2.32775s-.30587-1.73449-.41045-2.32775l-2.32769-.41039s1.73443-.30587,2.32769-.41046l.41045-2.32769s.30587,1.73444.41045,2.32769l2.32769.41046Zm41.059-3.637c-.06466.36664-.25366,1.43865-.25366,1.43865l-.25373-1.43865c-.36664-.06466-1.43865-.25366-1.43865-.25366s1.072-.189,1.43865-.25367l.25373-1.43865s.189,1.072.25366,1.43865l1.43865.25367S76.41137,87.65817,76.04473,87.72283Zm6.53044-10.50931c-.09511.53929-.37314,2.11608-.37314,2.11608s-.278-1.57679-.37314-2.11608c-.53929-.09511-2.11608-.37314-2.11608-.37314s1.57679-.278,2.11608-.37308l.37314-2.11614s.278,1.57679.37314,2.11608l2.11608.37314S83.1144,77.11841,82.57517,77.21352ZM93.1038,79.199l-.5224,2.96257s-.38924-2.20748-.52233-2.96257c-.755-.1331-2.96258-.52234-2.96258-.52234s2.20754-.38924,2.96258-.5224l.52233-2.96251s.38931,2.20748.5224,2.96251l2.96251.5224S93.85877,79.06591,93.1038,79.199Z" transform="translate(-0.0368 0.00006)"/>
        </g>
      </g>
      <g>
        <path class="e0c9afce-2564-4257-b767-f2ab7eb914c0" d="M21.62884,87.72131l.8501-.1499-.8501-.1499-.1499-.8501-.14989.85011-.85011.14989.85011.1499.14989.8501Z" transform="translate(-0.0368 0.00006)"/>
        <path class="e0c9afce-2564-4257-b767-f2ab7eb914c0" d="M14.89133,42.62526l1.76576-.31135-1.76575-.31135c-.07933-.45-.31135-1.76576-.31135-1.76576l-.31135,1.76577-1.76575.31134,1.76575.31135L14.58,44.391Z" transform="translate(-0.0368 0.00006)"/>
        <path class="e0c9afce-2564-4257-b767-f2ab7eb914c0" d="M16.27252,31.68018l1.25206-.22077-1.25205-.22077-.22077-1.25205L15.831,31.23864l-1.252.22077,1.252.22077.22077,1.252Z" transform="translate(-0.0368 0.00006)"/>
        <path class="e0c9afce-2564-4257-b767-f2ab7eb914c0" d="M82.95126,31.39242l2.22867-.393-2.22865-.393c-.10014-.568-.393-2.22865-.393-2.22865l-.393,2.22867-2.22865.393,2.22865.393.393,2.22866Z" transform="translate(-0.0368 0.00006)"/>
        <path class="e0c9afce-2564-4257-b767-f2ab7eb914c0" d="M93.6609,29.59188l1.40758-.2482-1.40757-.24819-.24819-1.40757-.24819,1.40758-1.40757.24818,1.40757.2482.24819,1.40757Z" transform="translate(-0.0368 0.00006)"/>
        <path class="e0c9afce-2564-4257-b767-f2ab7eb914c0" d="M85.081,89.17428l2.30823-.407-2.30821-.407c-.10372-.58825-.407-2.30821-.407-2.30821l-.407,2.30823-2.30822.407,2.30822.407.407,2.30822Z" transform="translate(-0.0368 0.00006)"/>
      </g>
    </g>
  </g>
</svg>
